<?xml version="1.0" encoding="UTF-8" standalone="no"?>
<!-- Created with Inkscape (http://www.inkscape.org/) -->

<svg
   xmlns:dc="http://purl.org/dc/elements/1.1/"
   xmlns:cc="http://creativecommons.org/ns#"
   xmlns:rdf="http://www.w3.org/1999/02/22-rdf-syntax-ns#"
   xmlns:svg="http://www.w3.org/2000/svg"
   xmlns="http://www.w3.org/2000/svg"
   xmlns:sodipodi="http://sodipodi.sourceforge.net/DTD/sodipodi-0.dtd"
   xmlns:inkscape="http://www.inkscape.org/namespaces/inkscape"
   width="800"
   height="800"
   viewBox="0 0 211.66666 211.66667"
   version="1.1"
   id="svg8"
   inkscape:version="0.92.2 5c3e80d, 2017-08-06"
   sodipodi:docname="favicon.svg"
   inkscape:export-filename="/Users/connorboyle/friendviz/friendviz/src/assets/favicon.png"
   inkscape:export-xdpi="96"
   inkscape:export-ydpi="96">
  <defs
     id="defs2" />
  <sodipodi:namedview
     id="base"
     pagecolor="#ffffff"
     bordercolor="#666666"
     borderopacity="1.0"
     inkscape:pageopacity="0.0"
     inkscape:pageshadow="2"
     inkscape:zoom="0.35"
     inkscape:cx="118.54173"
     inkscape:cy="477.53593"
     inkscape:document-units="mm"
     inkscape:current-layer="g4578"
     showgrid="false"
     units="px"
     inkscape:window-width="1440"
     inkscape:window-height="786"
     inkscape:window-x="0"
     inkscape:window-y="1"
     inkscape:window-maximized="1" />
  <metadata
     id="metadata5">
    <rdf:RDF>
      <cc:Work
         rdf:about="">
        <dc:format>image/svg+xml</dc:format>
        <dc:type
           rdf:resource="http://purl.org/dc/dcmitype/StillImage" />
        <dc:title></dc:title>
      </cc:Work>
    </rdf:RDF>
  </metadata>
  <g
     inkscape:label="Layer 1"
     inkscape:groupmode="layer"
     id="layer1"
     transform="translate(0,-85.333317)">
    <rect
       id="rect3707"
       width="211.66667"
       height="211.66667"
       x="0"
       y="85.333313"
       style="stroke-width:0.25029424;fill:#5067af;fill-opacity:1" />
    <g
       id="g4578"
       transform="matrix(7.7170139,0,0,7.7170139,13.229167,98.562484)"
       inkscape:transform-center-x="2006.4237"
       inkscape:transform-center-y="1433.1597">
      <path
         id="path4564"
         d="M 0,0 H 24 V 24 H 0 Z"
         inkscape:connector-curvature="0"
         style="fill:none" />
      <path
         id="path4566"
         d="m 16,11 c 1.66,0 2.99,-1.34 2.99,-3 0,-1.66 -1.33,-3 -2.99,-3 -1.66,0 -3,1.34 -3,3 0,1.66 1.34,3 3,3 z M 8,11 C 9.66,11 10.99,9.66 10.99,8 10.99,6.34 9.66,5 8,5 6.34,5 5,6.34 5,8 c 0,1.66 1.34,3 3,3 z m 0,2 C 5.67,13 1,14.17 1,16.5 V 19 H 15 V 16.5 C 15,14.17 10.33,13 8,13 Z m 8,0 c -0.29,0 -0.62,0.02 -0.97,0.05 1.16,0.84 1.97,1.97 1.97,3.45 V 19 h 6 V 16.5 C 23,14.17 18.33,13 16,13 Z"
         inkscape:connector-curvature="0"
         style="fill:#e9eaee;fill-opacity:1" />
    </g>
  </g>
</svg>
